<?xml version="1.0" encoding="UTF-8"?>
<svg width="32px" height="30px" viewBox="0 0 32 30" version="1.1" xmlns="http://www.w3.org/2000/svg" xmlns:xlink="http://www.w3.org/1999/xlink">
    <title>css</title>
    <g id="Wesbite" stroke="none" stroke-width="1" fill="none" fill-rule="evenodd">
        <g id="Artboard-Copy" transform="translate(-207.000000, -2648.000000)" fill="#FFFFFF" fill-rule="nonzero">
            <g id="Group-10" transform="translate(95.000000, 2348.000000)">
                <g id="Group-9" transform="translate(0.000000, 298.000000)">
                    <g id="css" transform="translate(112.000000, 2.000000)">
                        <path d="M27.9999998,0.666666667 L3.99999983,0.666666667 L3.99999983,0.666666667 C1.79086649,0.666666667 -1.74845333e-07,2.45753333 -1.74845333e-07,4.66666667 C-1.74845333e-07,4.66666667 -1.74845333e-07,4.66666667 -1.74845333e-07,4.66666667 L-1.74845333e-07,24.6666667 L-1.74845333e-07,24.6666667 C-1.74845333e-07,26.8758006 1.79086649,28.6666667 3.99999983,28.6666667 L27.9999998,28.6666667 L27.9999998,28.6666667 C30.209133,28.6666667 31.9999998,26.8758006 31.9999998,24.6666667 L31.9999998,4.66666667 L31.9999998,4.66666667 C31.9999998,2.45753394 30.209133,0.666666667 27.9999998,0.666666667 L27.9999998,0.666666667 Z M4,5.33333333 L4,5.33333353 C4,4.59695353 4.59695333,4.0000002 5.33333333,4.0000002 C6.06971333,4.0000002 6.66666667,4.59695353 6.66666667,5.33333353 C6.66666667,6.06971353 6.06971333,6.66666687 5.33333333,6.66666687 L5.33333339,6.66666687 C4.59695339,6.66666687 4,6.06971353 4,5.33333353 C4,5.33333347 4,5.3333334 4,5.33333333 L4,5.33333333 Z M8,5.33333333 L8,5.33333353 C8,4.59695353 8.59695333,4.0000002 9.33333333,4.0000002 C10.0697133,4.0000002 10.6666667,4.59695353 10.6666667,5.33333353 C10.6666667,6.06971353 10.0697133,6.66666687 9.33333333,6.66666687 L9.33333339,6.66666687 C8.59695339,6.66666687 8,6.06971353 8,5.33333353 C8,5.33333347 8,5.3333334 8,5.33333333 L8,5.33333333 Z M12,5.33333333 L12,5.33333353 C12,4.59695353 12.5969533,4.0000002 13.3333333,4.0000002 C14.0697133,4.0000002 14.6666667,4.59695353 14.6666667,5.33333353 C14.6666667,6.06971353 14.0697133,6.66666687 13.3333333,6.66666687 L13.3333334,6.66666687 C12.5969534,6.66666687 12,6.06971353 12,5.33333353 C12,5.33333347 12,5.3333334 12,5.33333333 L12,5.33333333 Z M29.3333333,24.6666667 L29.3333333,24.6666667 C29.3333333,25.4030467 28.73638,26.0000001 28,26.0000001 L4,26.0000001 L3.99999994,26.0000001 C3.26361994,26.0000001 2.66666661,25.4030467 2.66666661,24.6666667 C2.66666661,24.6666667 2.66666661,24.6666667 2.66666661,24.6666667 L2.66666661,10.6666667 L2.66666661,10.6666668 C2.66666661,10.2984774 2.96514394,10.0000001 3.33333328,10.0000001 L28.6666666,10.0000001 L28.6666666,10.0000001 C29.0348559,10.0000001 29.3333333,10.2984774 29.3333333,10.6666668 C29.3333333,10.6666668 29.3333333,10.6666668 29.3333333,10.6666669 L29.3333333,24.6666667 Z" id="Shape"></path>
                        <path d="M10.6666667,22.3333333 L10.6666666,22.3333333 C11.218952,22.3333333 11.6666666,21.8856187 11.6666666,21.3333333 C11.6666666,20.781048 11.218952,20.3333333 10.6666666,20.3333333 L10.6666667,20.3333333 C9.74649734,20.3325981 9.00073334,19.586836 8.99999971,18.6666632 L8.99999971,17.3333333 L8.99999971,17.3333565 C9.00145548,16.4134912 9.7467773,15.6681432 10.66664,15.6666632 L10.6666399,15.6666632 C11.2189253,15.6666632 11.6666666,15.2189485 11.6666666,14.6666632 C11.6666666,14.1143778 11.2189253,13.6666632 10.6666399,13.6666632 L10.6666398,13.6666632 C8.64251981,13.6688805 7.00219981,15.3092098 6.99999971,17.3333298 L6.99999971,18.6666632 L6.99999971,18.6665314 C7.00139781,20.6909714 8.64210638,22.3317848 10.666533,22.3333333 L10.6666667,22.3333333 Z" id="Path"></path>
                        <path d="M15.3333333,20.3333333 L14,20.3333333 L14,20.3333333 C13.4477146,20.3333334 13,20.781048 13,21.3333333 C13,21.8856187 13.4477146,22.3333333 14,22.3333333 L15.3333333,22.3333333 L15.3333333,22.3333333 C16.6213879,22.3318638 17.6651999,21.2880547 17.6666667,20 L17.6666667,20.0000028 C17.6088335,18.8306988 16.9541707,17.7731628 15.9333334,17.2000028 C15.2560001,16.6920028 15,16.4573361 15,16.0000028 L15,16.0000028 C15,15.8159082 15.1492387,15.6666695 15.3333334,15.6666695 L16.6666667,15.6666695 L16.6666667,15.6666695 C17.218952,15.6666695 17.6666667,15.2189548 17.6666667,14.6666695 C17.6666667,14.1143842 17.218952,13.6666695 16.6666667,13.6666695 L15.3333334,13.6666695 L15.3333334,13.6666695 C14.0452774,13.6681376 13.0014667,14.7119455 13,16.0000028 L13,16.0000024 C13.0573338,17.1694624 13.712136,18.2272157 14.7333334,18.8000024 C15.4106667,19.3080024 15.6666667,19.5426691 15.6666667,20.0000024 L15.6666667,20.0000027 C15.6666667,20.1840973 15.517428,20.333336 15.3333334,20.333336 L15.3333333,20.3333333 Z" id="Path"></path>
                        <path d="M21.3333333,20.3333333 L20,20.3333333 L20,20.3333333 C19.4477146,20.3333334 19,20.781048 19,21.3333333 C19,21.8856187 19.4477146,22.3333333 20,22.3333333 L21.3333333,22.3333333 L21.3333333,22.3333333 C22.6213879,22.3318638 23.6651999,21.2880547 23.6666667,20 L23.6666667,20.0000028 C23.6088335,18.8306988 22.9541707,17.7731628 21.9333334,17.2000028 C21.2560001,16.6920028 21,16.4573361 21,16.0000028 L21,16.0000028 C21,15.8159082 21.1492387,15.6666695 21.3333334,15.6666695 L22.6666667,15.6666695 L22.6666667,15.6666695 C23.218952,15.6666695 23.6666667,15.2189548 23.6666667,14.6666695 C23.6666667,14.1143842 23.218952,13.6666695 22.6666667,13.6666695 L21.3333334,13.6666695 L21.3333334,13.6666695 C20.0452787,13.668139 19.0014667,14.7119468 19,16.0000028 L19,16.0000024 C19.0573338,17.1694624 19.7121361,18.2272157 20.7333334,18.8000024 C21.4106667,19.3080024 21.6666667,19.5426691 21.6666667,20.0000024 L21.6666667,20.0000027 C21.6666667,20.1840973 21.5174281,20.333336 21.3333334,20.333336 L21.3333333,20.3333333 Z" id="Path"></path>
                    </g>
                </g>
            </g>
        </g>
    </g>
</svg>