<?xml version="1.0" encoding="UTF-8"?>
<svg width="32px" height="32px" viewBox="0 0 32 32" version="1.1" xmlns="http://www.w3.org/2000/svg" xmlns:xlink="http://www.w3.org/1999/xlink">
    <title>github</title>
    <g id="Wesbite" stroke="none" stroke-width="1" fill="none" fill-rule="evenodd">
        <g id="Artboard-Copy" transform="translate(-95.000000, -2647.000000)" fill="#FFFFFF" fill-rule="nonzero">
            <g id="Group-10" transform="translate(95.000000, 2348.000000)">
                <g id="Group-9" transform="translate(0.000000, 298.000000)">
                    <g id="github" transform="translate(0.000000, 1.000000)">
                        <path d="M16,0.373327559 L16.0000008,0.373327559 C7.16344077,0.3707076 -0.00213256028,7.53202667 -0.0047999398,16.3685333 C-0.00685818695,23.2976533 4.45152077,29.4406533 11.0399608,31.5866667 L11.4266274,31.5866667 L11.4266274,31.5866667 C12.1615941,31.6322624 12.7943607,31.0734173 12.8399607,30.3384507 C12.843372,30.2834645 12.843372,30.2283199 12.8399607,30.1733333 L12.8399607,29.8933333 C12.8399607,29.6666667 12.8399607,29.36 12.8399607,28.44 L12.8399607,28.44 C12.8135274,28.26356 12.7174759,28.105076 12.5732914,27.9999986 L12.5732914,27.9999986 C12.4164207,27.8731001 12.2105167,27.824076 12.0132914,27.8666653 C8.43995808,28.6399986 7.67995808,26.3999986 7.62662475,26.253332 L7.6266246,26.2533316 C7.17917127,25.0681543 6.37866727,24.0489049 5.33329127,23.3333316 L5.33329122,23.3333315 C5.27065816,23.2791677 5.20377642,23.2301211 5.13329122,23.1866649 L5.13329113,23.1866649 C5.28823513,23.1032516 5.46546179,23.0706044 5.63995779,23.0933316 L5.63995786,23.0933316 C6.3216192,23.1881163 6.90362453,23.6334769 7.1732912,24.2666649 L7.17329142,24.2666653 C8.24531942,26.1332653 10.6022781,26.8167853 12.5066248,25.813332 L12.5066247,25.813332 C12.7061807,25.7260964 12.8505447,25.5468867 12.8932914,25.333332 L12.8932913,25.333333 C12.9443423,24.7165876 13.2083113,24.1367996 13.6399567,23.693333 L13.6399567,23.6933329 C13.9152593,23.4488489 13.9402433,23.0274796 13.69576,22.7521769 C13.5883115,22.6311836 13.440524,22.5534009 13.279956,22.5333329 C10.119956,22.1733329 6.89328935,21.0666663 6.89328935,15.6133329 L6.89328948,15.6133398 C6.86665095,14.2438465 7.36794548,12.9166065 8.29328948,11.9066731 L8.29328951,11.9066731 C8.46729084,11.7144878 8.51409617,11.4388571 8.41328951,11.2000064 L8.41328922,11.2000057 C8.04272922,10.164711 8.04745056,9.03216566 8.42662802,8.00000566 L8.42662807,8.00000566 C9.65839873,8.21835366 10.8145347,8.74595766 11.7866281,9.533339 L11.786628,9.53333897 C11.9493174,9.6481659 12.155492,9.6825283 12.346628,9.6266723 L12.3466277,9.6266724 C13.5376743,9.30358173 14.765881,9.13772973 15.999961,9.13333907 L15.9999617,9.13333907 C17.2386577,9.13438019 18.4717084,9.30028173 19.6666284,9.6266724 L19.6666284,9.6266724 C19.8536697,9.6782808 20.0539724,9.64408267 20.2132951,9.53333907 L20.2132948,9.53333925 C21.1869175,8.74843258 22.3423882,8.22113258 23.5732948,8.00000591 L23.5732949,8.00000597 C23.9362669,9.02664597 23.9362669,10.1466993 23.5732948,11.1733393 L23.5732948,11.1733393 C23.4724887,11.41219 23.5192939,11.6878206 23.6932948,11.880006 L23.6932949,11.8800061 C24.6090683,12.8798421 25.1096683,14.1909261 25.0932949,15.5466728 C25.0932949,21.0000061 21.8532949,22.0933394 18.6799616,22.4533394 L18.6799616,22.4533394 C18.3137522,22.4914765 18.0477976,22.8192648 18.0859336,23.1854741 C18.1038285,23.3573088 18.1877313,23.5154861 18.3199616,23.6266728 L18.3199617,23.6266728 C18.9176937,24.2436115 19.2149617,25.0915528 19.133295,25.9466728 L19.133295,30.1866728 L19.133295,30.186674 C19.1199322,30.6087474 19.2960016,31.0146847 19.6132963,31.2933407 L19.6132962,31.2933406 C20.0179388,31.5963033 20.5419508,31.6902299 21.0266295,31.5466739 L21.0266287,31.5466742 C29.4066687,28.7431809 33.927362,19.6771276 31.1238553,11.2970742 C28.946722,4.78934089 22.8621753,0.394567559 15.9999887,0.373327559 L16,0.373327559 Z" id="Path"></path>
                    </g>
                </g>
            </g>
        </g>
    </g>
</svg>