<?xml version="1.0" encoding="UTF-8"?>
<svg width="32px" height="32px" viewBox="0 0 32 32" version="1.1" xmlns="http://www.w3.org/2000/svg" xmlns:xlink="http://www.w3.org/1999/xlink">
    <title>html</title>
    <g id="Wesbite" stroke="none" stroke-width="1" fill="none" fill-rule="evenodd">
        <g id="Artboard-Copy" transform="translate(-151.000000, -2647.000000)" fill="#FFFFFF" fill-rule="nonzero">
            <g id="Group-10" transform="translate(95.000000, 2348.000000)">
                <g id="Group-9" transform="translate(0.000000, 298.000000)">
                    <g id="html" transform="translate(56.000000, 1.000000)">
                        <path d="M5.42266667,27.6413333 L15.556,31.2173333 L15.5560001,31.2173334 C15.8433054,31.3187967 16.1566948,31.3187967 16.4440001,31.2173333 L26.5773334,27.6413333 L26.5773334,27.6413333 C27.0444507,27.4759373 27.3813107,27.065132 27.452,26.5746667 L31.104,2.23866665 L31.104,2.23866675 C31.2137207,1.51050675 30.7123774,0.831266751 29.9842174,0.721546751 C29.9183874,0.711627337 29.8519068,0.706662999 29.7853334,0.706662999 L2.21466669,0.706662999 L2.21466668,0.706662999 C1.47828668,0.706662999 0.881119994,1.30339902 0.881119994,2.03977902 C0.881119994,2.10635222 0.886084332,2.17283275 0.896003745,2.23866302 L4.54800375,26.5813297 L4.54800372,26.5813295 C4.62098732,27.0692762 4.95745305,27.4770362 5.42267039,27.6413295 L5.42266667,27.6413333 Z M7.93066667,5.412 L7.93066649,5.41200021 C8.30937049,4.96384554 8.86659715,4.70572421 9.45333315,4.70666431 L23.3333332,4.70666431 L23.3333331,4.70666431 C24.0697131,4.70666431 24.6666664,5.30362021 24.6666664,6.04000021 C24.6666664,6.77638021 24.0697131,7.37333354 23.3333331,7.37333354 L10.6346664,7.37333354 L10.6346664,7.37333354 C10.53648,7.37361598 10.4433704,7.41700194 10.3799998,7.49200021 L10.3799998,7.49200023 C10.3172962,7.56568463 10.2900102,7.66313489 10.3053331,7.75866689 L11.0373331,12.1466669 L11.0373331,12.1466667 C11.0907771,12.4681334 11.3687877,12.7038507 11.6946664,12.704 L21.2319997,12.704 L21.2319997,12.704 C22.336569,12.7039581 23.2320397,13.5993547 23.2320797,14.70392 C23.2320833,14.7985238 23.2253745,14.893008 23.2120038,14.9866627 L22.0480038,23.131996 L22.0480038,23.131996 C21.935902,23.9136973 21.3743252,24.5562493 20.6146705,24.771996 L16.5493372,25.9346627 L16.5493373,25.9346626 C16.3706639,25.9857844 16.1858439,26.0122514 16.0000039,26.0133297 L16.0000039,26.0133297 C15.8160172,26.0133297 15.6329185,25.9878484 15.4560039,25.9373294 L11.3733372,24.7719961 L11.3733371,24.7719961 C10.6295371,24.5587668 10.0754625,23.9356268 9.95067045,23.1719961 L9.35333712,19.5893294 L9.35333708,19.5893292 C9.21068241,18.8668999 9.68068241,18.1656092 10.4031117,18.0229559 C11.1255411,17.8803012 11.8268317,18.3503012 11.9694851,19.0727305 C11.9746751,19.0990136 11.9790717,19.1254471 11.9826691,19.1519951 L12.4426691,21.9053284 L12.442669,21.9053283 C12.4843382,22.1599883 12.669229,22.367731 12.9173357,22.4386616 L15.818669,23.267995 L15.818669,23.267995 C15.9379796,23.3026622 16.0646917,23.3026622 16.1840024,23.267995 L19.054669,22.447995 L19.054669,22.447995 C19.307193,22.3754856 19.4935823,22.1614256 19.530669,21.9013283 L20.410669,15.7546616 L20.410669,15.7546617 C20.4357101,15.570791 20.3069537,15.401435 20.1230837,15.3763937 C20.1088039,15.3744489 20.0944139,15.3734249 20.0800027,15.373328 L10.5653361,15.373328 L10.565336,15.373328 C9.58597468,15.3768688 8.74932268,14.6679773 8.59200268,13.701328 L7.48000268,7.03466132 L7.48000269,7.03466138 C7.38407816,6.45380671 7.54894402,5.86019204 7.93066936,5.41199471 L7.93066667,5.412 Z" id="Shape"></path>
                    </g>
                </g>
            </g>
        </g>
    </g>
</svg>