<?xml version="1.0" encoding="UTF-8"?>
<svg width="28px" height="34px" viewBox="0 0 28 34" version="1.1" xmlns="http://www.w3.org/2000/svg" xmlns:xlink="http://www.w3.org/1999/xlink">
    <title>js</title>
    <g id="Wesbite" stroke="none" stroke-width="1" fill="none" fill-rule="evenodd">
        <g id="Artboard-Copy" transform="translate(-263.000000, -2646.000000)" fill="#FFFFFF" fill-rule="nonzero">
            <g id="Group-10" transform="translate(95.000000, 2348.000000)">
                <g id="Group-9" transform="translate(0.000000, 298.000000)">
                    <g id="js" transform="translate(168.000000, 0.000000)">
                        <path d="M21.7,8.40000057 L27.16,8.40000057 L27.16,8.40000057 C27.3532994,8.40034584 27.51028,8.2439266 27.5106264,8.0506272 C27.5107926,7.95743088 27.4737834,7.8680168 27.4078002,7.8022 L20.1978002,0.5992 L20.1978002,0.599199998 C20.0613212,0.462312338 19.8397138,0.461981098 19.702826,0.598460168 C19.6385109,0.662583248 19.6016394,0.749195368 19.6000002,0.839999368 L19.6000002,6.29999937 L19.6000002,6.29999969 C19.6000002,7.45979749 20.5402024,8.40000057 21.7000002,8.40000057 C21.7000002,8.40000057 21.7000002,8.40000057 21.7000002,8.40000057 L21.7,8.40000057 Z" id="Path"></path>
                        <path d="M27.65,9.8 L21.7,9.8 L21.6999998,9.8 C19.7670058,9.79999992 18.1999998,8.232994 18.1999998,6.3 C18.1999998,6.3 18.1999998,6.3 18.1999998,6.3 L18.1999998,0.3514 L18.1999999,0.351398861 C18.2007724,0.158100861 18.0446993,0.000775861166 17.8514013,2.65707617e-07 C17.8509337,2.65707617e-07 17.8504661,2.65707617e-07 17.8499985,2.65707617e-07 L2.79999845,2.65707617e-07 L2.79999833,2.65707617e-07 C1.25360033,2.65707617e-07 -1.67082761e-06,1.25360367 -1.67082761e-06,2.80000027 L-1.67082761e-06,30.8000003 L-1.67082761e-06,30.8000007 C-1.67082761e-06,32.3463987 1.25360173,33.6000007 2.79999833,33.6000007 L25.1999983,33.6000007 L25.1999982,33.6000007 C26.7463962,33.6000007 27.9999983,32.3463987 27.9999983,30.8000007 L27.9999983,10.1514007 L27.9999983,10.1513995 C28.0007708,9.95810155 27.8446976,9.80077655 27.6513996,9.80000375 C27.650932,9.80000188 27.6504644,9.80000095 27.6499968,9.80000095 L27.65,9.8 Z M12.775,23.8 L12.775,23.8 C12.775,25.443054 11.443047,26.775 9.8,26.775 C8.156946,26.775 6.825,25.443047 6.825,23.8 L6.825,23.8000001 C6.825,23.3167509 7.2167508,22.9250001 7.7,22.9250001 C8.1832492,22.9250001 8.575,23.3167509 8.575,23.8000001 C8.575,23.8000001 8.575,23.8000001 8.575,23.8000001 L8.575,23.8000003 C8.5750001,24.4765489 9.1234514,25.0250003 9.8,25.0250003 C10.4765486,25.0250002 11.025,24.4765489 11.025,23.8000003 L11.025,17.5000003 L11.025,17.5000004 C11.0249999,17.0167512 11.4167508,16.6250004 11.9,16.6250004 C12.3832492,16.6250004 12.775,17.0167512 12.775,17.5000004 C12.775,17.5000004 12.775,17.5000004 12.775,17.5000004 L12.775,23.8 Z M15.995,20.1138 L18.571,21.8302 L18.5710001,21.8302001 C19.8112111,22.6573299 20.1460841,24.3332461 19.3189473,25.5734501 C18.8182303,26.3242323 17.9754359,26.7751149 17.0729973,26.7749987 L14.6999973,26.7749987 L14.6999973,26.7749987 C14.2167481,26.7749987 13.8249973,26.3832479 13.8249973,25.8999987 C13.8249973,25.4167495 14.2167481,25.0249987 14.6999973,25.0249987 L17.0799973,25.0249987 L17.0799973,25.0249987 C17.6042259,25.0247809 18.0290209,24.5996325 18.0288025,24.0754039 C18.0286707,23.7582913 17.8701895,23.4621913 17.6063973,23.2861987 L15.0303973,21.5697987 L15.0303971,21.5697986 C13.7901861,20.7426688 13.4553131,19.0667526 14.2824499,17.8265486 C14.7831669,17.0757664 15.6259613,16.6248838 16.5283999,16.6250013 L18.9083999,16.6250013 L18.9083999,16.6250013 C19.3916491,16.6250013 19.7833999,17.0167522 19.7833999,17.5000014 C19.7833999,17.9832506 19.3916491,18.3750014 18.9083999,18.3750014 L16.5199999,18.3750014 L16.5199999,18.3750014 C15.9957713,18.3752192 15.5709763,18.8003676 15.5711947,19.3245962 C15.5713264,19.6417088 15.7298077,19.9378088 15.9935999,20.1138014 L15.995,20.1138 Z" id="Shape"></path>
                    </g>
                </g>
            </g>
        </g>
    </g>
</svg>