<?xml version="1.0" encoding="UTF-8"?>
<svg version="1.1" viewBox="0 0 24 24" xmlns="http://www.w3.org/2000/svg" xmlns:xlink="http://www.w3.org/1999/xlink">
    <!--Generated by IJSVG (https://github.com/iconjar/IJSVG)-->
    <g fill="#565656">
        <path d="M2.5,22.5c-0.27614,0 -0.5,-0.22386 -0.5,-0.5v-13c0,-0.27614 0.22386,-0.5 0.5,-0.5h4c0.27614,0 0.5,0.22386 0.5,0.5v13c0,0.27614 -0.22386,0.5 -0.5,0.5Z"></path>
        <path d="M6.23362,2.23223c0.9685,0.976311 0.9685,2.55922 0,3.53553c-0.9685,0.976311 -2.53875,0.976311 -3.50725,0c-0.9685,-0.976311 -0.9685,-2.55922 -4.44089e-16,-3.53553c0.9685,-0.976311 2.53875,-0.976311 3.50725,-4.44089e-16"></path>
        <path d="M18.5,22.5h3h-2.18557e-08c0.276142,1.20706e-08 0.5,-0.223858 0.5,-0.5v-8.4c0,-3.77 -2.13,-5.6 -5.11,-5.6l-6.05407e-08,-2.21418e-09c-1.18863,-0.0434722 -2.34018,0.417875 -3.17,1.27l-2.82177e-09,3.26008e-09c-0.148191,0.17121 -0.407117,0.189871 -0.578328,0.0416795c-0.0904176,-0.0782611 -0.142161,-0.192097 -0.141673,-0.311679v0c0,-0.276142 -0.223858,-0.5 -0.5,-0.5h-3h-2.18733e-08c-0.276142,1.20706e-08 -0.5,0.223858 -0.5,0.5c0,0 0,4.32926e-09 0,4.32926e-09v13l5.32907e-15,7.54979e-08c4.16963e-08,0.276142 0.223858,0.5 0.5,0.5h3l2.18557e-08,-3.55271e-15c0.276142,-5.37669e-08 0.5,-0.223858 0.5,-0.5v-7.5l2.84217e-14,3.77489e-07c-2.08482e-07,-1.38071 1.11929,-2.5 2.5,-2.5c1.38071,-2.08482e-07 2.5,1.11929 2.5,2.5c0,0 0,1.77636e-15 0,1.77636e-15v7.5l7.10543e-15,7.54979e-08c4.16963e-08,0.276142 0.223858,0.5 0.5,0.5c0,0 2.84217e-14,0 2.84217e-14,0Z"></path>
    </g>
</svg>