<?xml version="1.0" encoding="UTF-8"?>
<svg width="38px" height="33px" viewBox="0 0 38 33" version="1.1" xmlns="http://www.w3.org/2000/svg" xmlns:xlink="http://www.w3.org/1999/xlink">
    <title>basecamp</title>
    <g id="Wesbite" stroke="none" stroke-width="1" fill="none" fill-rule="evenodd">
        <g id="Artboard-Copy" transform="translate(-1080.000000, -1703.000000)" fill="#1D2D35" fill-rule="nonzero">
            <g id="Group-16" transform="translate(134.000000, 1280.000000)">
                <g id="Group-15" transform="translate(75.000000, 67.000000)">
                    <g id="Group-14" transform="translate(548.000000, 56.000000)">
                        <g id="Group-13" transform="translate(275.000000, 300.000000)">
                            <g id="basecamp" transform="translate(48.000000, 0.000000)">
                                <path d="M35.9,25.7 C35,25.7 34.3,25 34.2,24.1 C33.6,15.5 28.9,3.4 20.2,3.4 C13,3.4 7.6,8.4 4.1,18.3 C3.8,19.2 2.8,19.7 1.9,19.3 C1,19 0.5,18 0.9,17.2 C4.9,5.8 11.4,0 20.2,0 C31.7,0 37,14.6 37.6,23.9 C37.7,24.8 37,25.7 36,25.7 L35.9,25.7 Z" id="Path"></path>
                                <path d="M19.8,32 C14,32 8.4,29.5 4.5,25.1 C4,24.7 3.9,24 4.1,23.4 C5.2,20.5 8.1,13.8 11.8,13.7 C13.7,13.7 15.1,15.2 16.2,16.4 C16.5,16.8 17,17.3 17.4,17.6 C18.3,16.7 20,13.9 21.3,11 C21.7,10.1 22.7,9.8 23.6,10.2 C24.5,10.6 24.8,11.6 24.4,12.5 C20.4,21.2 18.3,21.2 17.5,21.2 C15.9,21.2 14.8,20 13.7,18.8 C13.2,18.3 12.2,17.2 11.8,17.2 C10.9,17.3 9,20.4 7.7,23.7 C11,27 15.5,28.8 20.1,28.7 C24.1,28.7 31.2,28 34.1,23.7 C33.3,15.1 28.6,3.5 20.1,3.5 C19.2,3.5 18.4,2.7 18.4,1.8 C18.4,0.9 19.2,0 20.2,0 C31.7,0 37,14.6 37.6,23.9 C37.6,24.2 37.5,24.6 37.4,24.9 C34.7,29.5 28.6,32.1 20.2,32.1 C20.1,32 19.9,32 19.8,32 Z" id="Path"></path>
                            </g>
                        </g>
                    </g>
                </g>
            </g>
        </g>
    </g>
</svg>