<?xml version="1.0" encoding="UTF-8"?>
<svg width="23px" height="34px" viewBox="0 0 23 34" version="1.1" xmlns="http://www.w3.org/2000/svg" xmlns:xlink="http://www.w3.org/1999/xlink">
    <title>figma</title>
    <g id="Wesbite" stroke="none" stroke-width="1" fill="none" fill-rule="evenodd">
        <g id="Artboard-Copy" transform="translate(-1272.000000, -1703.000000)" fill-rule="nonzero">
            <g id="Group-16" transform="translate(134.000000, 1280.000000)">
                <g id="Group-15" transform="translate(75.000000, 67.000000)">
                    <g id="Group-14" transform="translate(548.000000, 56.000000)">
                        <g id="Group-13" transform="translate(275.000000, 300.000000)">
                            <g id="figma" transform="translate(240.000000, 0.000000)">
                                <path d="M11.3333333,17 C11.3333333,13.8703864 13.8703864,11.3333333 17,11.3333333 C20.1296136,11.3333333 22.6666667,13.8703864 22.6666667,17 C22.6666667,20.1296136 20.1296136,22.6666667 17,22.6666667 C13.8703864,22.6666667 11.3333333,20.1296136 11.3333333,17 L11.3333333,17 Z" id="Path" fill="#1ABCFE"></path>
                                <path d="M0,28.3333333 C0,25.2037198 2.53705308,22.6666667 5.66666667,22.6666667 L11.3333333,22.6666667 L11.3333333,28.3333333 C11.3333333,31.4629469 8.79628025,34 5.66666667,34 C2.53705308,34 0,31.4629469 0,28.3333333 Z" id="Path" fill="#0ACF83"></path>
                                <path d="M11.3333333,0 L11.3333333,11.3333333 L17,11.3333333 C20.1296136,11.3333333 22.6666667,8.79628025 22.6666667,5.66666667 C22.6666667,2.53705308 20.1296136,0 17,0 L11.3333333,0 Z" id="Path" fill="#FF7262"></path>
                                <path d="M0,5.66666667 C0,8.79628025 2.53705308,11.3333333 5.66666667,11.3333333 L11.3333333,11.3333333 L11.3333333,0 L5.66666667,0 C2.53705308,0 0,2.53705308 0,5.66666667 Z" id="Path" fill="#F24E1E"></path>
                                <path d="M0,17 C0,20.1296136 2.53705308,22.6666667 5.66666667,22.6666667 L11.3333333,22.6666667 L11.3333333,11.3333333 L5.66666667,11.3333333 C2.53705308,11.3333333 0,13.8703864 0,17 Z" id="Path" fill="#A259FF"></path>
                            </g>
                        </g>
                    </g>
                </g>
            </g>
        </g>
    </g>
</svg>