<?xml version="1.0" encoding="UTF-8"?>
<svg width="32px" height="34px" viewBox="0 0 32 34" version="1.1" xmlns="http://www.w3.org/2000/svg" xmlns:xlink="http://www.w3.org/1999/xlink">
    <title>notion</title>
    <g id="Wesbite" stroke="none" stroke-width="1" fill="none" fill-rule="evenodd">
        <g id="Artboard-Copy" transform="translate(-1178.000000, -1703.000000)" fill="#37352F">
            <g id="Group-16" transform="translate(134.000000, 1280.000000)">
                <g id="Group-15" transform="translate(75.000000, 67.000000)">
                    <g id="Group-14" transform="translate(548.000000, 56.000000)">
                        <g id="Group-13" transform="translate(275.000000, 300.000000)">
                            <g id="notion" transform="translate(146.000000, 0.000000)">
                                <path d="M5.51805333,5.8484 C6.55562667,6.69130667 6.94485333,6.62698667 8.89312,6.49701333 L27.2608,5.39410667 C27.6504,5.39410667 27.3264,5.00546667 27.1965333,4.94088 L24.1460533,2.73562667 C23.5615467,2.281864 22.7828267,1.76218133 21.29032,1.892168 L3.50488,3.18938667 C2.85626667,3.25370667 2.72669333,3.578 2.98504,3.83797333 L5.51805333,5.8484 Z M6.62082667,10.1289333 L6.62082667,29.4549333 C6.62082667,30.4936 7.13986667,30.8821333 8.30808,30.8178667 L28.4941333,29.6498667 C29.6629333,29.5856 29.7930667,28.8712 29.7930667,28.0274667 L29.7930667,8.83117333 C29.7930667,7.9888 29.4690667,7.53450667 28.7536,7.59936 L7.65893333,8.83117333 C6.88048,8.89658667 6.62082667,9.286 6.62082667,10.1289333 Z M26.5484533,11.1656267 C26.6778667,11.74992 26.5484533,12.3336533 25.9631467,12.3993067 L24.99048,12.5930933 L24.99048,26.8608 C24.1460533,27.3146667 23.3673333,27.5741333 22.7184533,27.5741333 C21.6795467,27.5741333 21.41936,27.2496 20.6411733,26.2773333 L14.2792267,16.2898667 L14.2792267,25.95304 L16.2923733,26.4073333 C16.2923733,26.4073333 16.2923733,27.5741333 14.6681867,27.5741333 L10.1906133,27.8338667 C10.0605333,27.5741333 10.1906133,26.9261333 10.6447733,26.7962667 L11.8132267,26.4724533 L11.8132267,13.696 L10.19088,13.566 C10.0608,12.9817333 10.3848267,12.1393333 11.2941867,12.0739467 L16.0976267,11.75016 L22.7184533,21.8676267 L22.7184533,12.9173867 L21.0304,12.7236267 C20.9008267,12.00936 21.41936,11.49072 22.0685067,11.4264 L26.5484533,11.1656267 Z M2.01157333,1.43841067 L20.5113333,0.0760736 C22.7830933,-0.118773867 23.3676,0.0117447467 24.7954667,1.04898133 L30.7008,5.19952 C31.6752,5.91325333 32,6.10757333 32,6.88562667 L32,29.6498667 C32,31.0765333 31.4802667,31.9202667 29.6632,32.0493333 L8.17957333,33.3466667 C6.81557333,33.4117333 6.1664,33.2173333 5.45208,32.3088 L1.10329333,26.6665067 C0.324042667,25.6279467 0,24.8509333 0,23.94184 L0,3.70746667 C0,2.54077333 0.519853333,1.5676 2.01157333,1.43841067 Z" id="Shape"></path>
                            </g>
                        </g>
                    </g>
                </g>
            </g>
        </g>
    </g>
</svg>