<?xml version="1.0" encoding="UTF-8"?>
<svg width="34px" height="31px" viewBox="0 0 34 31" version="1.1" xmlns="http://www.w3.org/2000/svg" xmlns:xlink="http://www.w3.org/1999/xlink">
    <title>sketch</title>
    <g id="Wesbite" stroke="none" stroke-width="1" fill="none" fill-rule="evenodd">
        <g id="Artboard-Copy" transform="translate(-1224.000000, -1705.000000)" fill-rule="nonzero">
            <g id="Group-16" transform="translate(134.000000, 1280.000000)">
                <g id="Group-15" transform="translate(75.000000, 67.000000)">
                    <g id="Group-14" transform="translate(548.000000, 56.000000)">
                        <g id="Group-13" transform="translate(275.000000, 300.000000)">
                            <g id="sketch" transform="translate(192.000000, 2.000000)">
                                <polygon id="Path" fill="#FDB300" points="7.40322581 1.01122581 16.966 0 26.5287742 1.01122581 33.932 10.9677419 16.966 30.7096774 0 10.9677419"></polygon>
                                <polygon id="Path" fill="#EA6C00" points="6.8723871 10.9677419 16.966 30.7096774 0 10.9677419"></polygon>
                                <polygon id="Path" fill="#EA6C00" points="27.0596129 10.9677419 16.9649032 30.7096774 33.9309032 10.9677419"></polygon>
                                <polygon id="Path" fill="#FDAD00" points="6.8723871 10.9677419 27.0596129 10.9677419 16.966 30.7096774"></polygon>
                                <polygon id="Path" fill="#FDD231" points="16.966 0 7.40322581 1.01122581 6.8723871 10.9677419"></polygon>
                                <polygon id="Path" fill="#FDD231" points="16.9649032 0 26.5276774 1.01122581 27.0585161 10.9677419"></polygon>
                                <path d="M33.9309032,10.9677419 L26.5276774,1.01122581 L27.0596129,10.9677419 L33.9309032,10.9677419 Z M0,10.9677419 L7.40322581,1.01122581 L6.8723871,10.9677419 L0,10.9677419 Z" id="Shape" fill="#FDAD00"></path>
                                <polygon id="Path" fill="#FEEEB7" points="16.966 0 6.8723871 10.9677419 27.0596129 10.9677419"></polygon>
                            </g>
                        </g>
                    </g>
                </g>
            </g>
        </g>
    </g>
</svg>