<?xml version="1.0" encoding="UTF-8"?>
<svg viewBox="0 0 84 47" version="1.1" xmlns="http://www.w3.org/2000/svg" xmlns:xlink="http://www.w3.org/1999/xlink">
    <g id="Wesbite" stroke="none" stroke-width="1" fill="none" fill-rule="evenodd">
        <path d="M15.68,46 L15.68,43.952 C9.792,43.248 8.192,42.928 9.408,39.088 L11.328,32.752 L24.576,32.752 L27.136,39.792 C28.352,43.056 26.88,43.632 24.32,43.952 L24.32,46 L44.8,46 L44.8,43.952 C42.432,43.312 41.92,43.184 41.088,41.072 L25.92,0.88 L17.792,0.88 L5.568,40.432 C4.8,42.992 3.84,43.312 0.32,43.952 L0.32,46 L15.68,46 Z M23.488,29.68 L12.224,29.68 L17.344,13.04 L17.472,13.04 L23.488,29.68 Z M64.137143,46.64 C69.001143,46.64 73.481143,45.36 76.489143,44.016 L78.665143,46.32 L80.777143,46.32 L80.777143,29.232 C80.777143,27.632 81.097143,27.312 83.977143,26.992 L83.977143,24.88 L64.457143,24.88 L64.457143,26.992 C67.337143,27.312 67.657143,27.632 67.657143,29.232 L67.657143,43.248 C66.697143,43.504 65.737143,43.632 64.777143,43.632 C58.633143,43.632 54.537143,38.512 54.537143,23.6 C54.537143,8.88 59.273143,3.632 65.417143,3.632 C73.097143,3.632 76.105143,9.2 77.385143,14.32 L79.497143,14.32 L78.857143,4.4 C76.297143,2.8 71.817143,0.56 65.417143,0.56 C51.273143,0.56 40.777143,10.16 40.777143,23.6 C40.777143,37.04 49.993143,46.64 64.137143,46.64 Z" id="AG" fill="#565656" fill-rule="nonzero"></path>
    </g>
</svg>
